<svg width="50" height="48" viewBox="0 0 50 48" fill="none" xmlns="http://www.w3.org/2000/svg">
<g clip-path="url(#clip0_660_387)">
<path d="M45.5371 15.8439C44.5739 13.5263 42.6201 11.024 41.0901 10.233C42.1814 12.3464 42.9387 14.6162 43.335 16.9615L43.3391 16.9987C40.8327 10.7494 36.5825 8.23054 33.1113 2.74431C32.932 2.46463 32.7579 2.18165 32.5891 1.89553C32.5021 1.74608 32.4206 1.59345 32.3449 1.43796C32.2009 1.15916 32.09 0.86452 32.0143 0.560007C32.0144 0.545955 32.0093 0.532358 32 0.521808C31.9907 0.511259 31.9779 0.504497 31.9639 0.502811C31.9503 0.499063 31.9359 0.499063 31.9222 0.502811C31.9193 0.502811 31.9148 0.507959 31.9113 0.50853L31.8953 0.517682L31.9039 0.502811C26.3359 3.76297 24.4467 9.79827 24.2728 12.8171C22.0493 12.9697 19.9234 13.7889 18.1723 15.1678C17.9896 15.0133 17.7987 14.8687 17.6004 14.7348C17.0953 12.9669 17.0737 11.0958 17.538 9.31668C15.4932 10.3073 13.6763 11.7115 12.2022 13.4405H12.1919C11.3134 12.3269 11.3752 8.65493 11.4255 7.88793C11.1656 7.99238 10.9175 8.1241 10.6854 8.28087C9.90984 8.83439 9.18482 9.45548 8.51882 10.1369C7.75989 10.9063 7.06673 11.738 6.44661 12.6232C5.02143 14.6436 4.01058 16.9258 3.47243 19.3391L3.44269 19.4855C3.36092 19.9454 3.28827 20.4069 3.22477 20.8697C3.22477 20.8863 3.22134 20.9017 3.21962 20.9183C3.02558 21.9268 2.90534 22.9482 2.85986 23.9743V24.0886C2.86472 29.6391 4.95153 34.9858 8.70786 39.072C12.4642 43.1583 17.6167 45.6868 23.1471 46.1578C28.6776 46.6288 34.1835 45.0081 38.5767 41.6159C42.97 38.2237 45.9309 33.3069 46.8743 27.8373C46.9115 27.5513 46.9418 27.2682 46.975 26.9793C47.4317 23.2055 46.9374 19.3779 45.5371 15.8439ZM19.9877 33.1959C20.0912 33.2457 20.1885 33.2989 20.2949 33.3469L20.3103 33.3567C20.2028 33.3052 20.0952 33.2516 19.9877 33.1959ZM43.3408 17.0038V16.9826L43.3448 17.0055L43.3408 17.0038Z" fill="url(#paint0_linear_660_387)"/>
<path d="M45.5371 15.8438C44.5739 13.5262 42.6201 11.0239 41.0901 10.2329C42.1814 12.3464 42.9387 14.6161 43.335 16.9614V16.9826L43.3391 17.0055C45.0478 21.895 44.8007 27.2557 42.6493 31.9673C40.1086 37.4181 33.9589 43.0061 24.3329 42.7344C13.9318 42.4399 4.77192 34.7213 3.05948 24.6131C2.74776 23.019 3.05948 22.2109 3.21619 20.9154C3.00241 21.9217 2.88312 22.9457 2.85986 23.9742V24.0886C2.86472 29.639 4.95153 34.9857 8.70786 39.072C12.4642 43.1582 17.6167 45.6867 23.1471 46.1577C28.6776 46.6288 34.1835 45.008 38.5767 41.6158C42.97 38.2237 45.9309 33.3069 46.8743 27.8372C46.9115 27.5512 46.9418 27.2681 46.975 26.9793C47.4317 23.2054 46.9374 19.3779 45.5371 15.8438Z" fill="url(#paint1_radial_660_387)"/>
<path d="M45.5371 15.8438C44.5739 13.5262 42.6201 11.0239 41.0901 10.2329C42.1814 12.3464 42.9387 14.6161 43.335 16.9614V16.9826L43.3391 17.0055C45.0478 21.895 44.8007 27.2557 42.6493 31.9673C40.1086 37.4181 33.9589 43.0061 24.3329 42.7344C13.9318 42.4399 4.77192 34.7213 3.05948 24.6131C2.74776 23.019 3.05948 22.2109 3.21619 20.9154C3.00241 21.9217 2.88312 22.9457 2.85986 23.9742V24.0886C2.86472 29.639 4.95153 34.9857 8.70786 39.072C12.4642 43.1582 17.6167 45.6867 23.1471 46.1577C28.6776 46.6288 34.1835 45.008 38.5767 41.6158C42.97 38.2237 45.9309 33.3069 46.8743 27.8372C46.9115 27.5512 46.9418 27.2681 46.975 26.9793C47.4317 23.2054 46.9374 19.3779 45.5371 15.8438Z" fill="url(#paint2_radial_660_387)"/>
<path d="M34.7647 18.4498C34.8127 18.4836 34.8574 18.5173 34.9025 18.5511C34.3457 17.5637 33.6526 16.6597 32.8435 15.8657C25.9537 8.97477 31.0378 0.924463 31.8952 0.515513L31.9038 0.50293C26.3358 3.76309 24.4466 9.79839 24.2727 12.8172C24.5312 12.7995 24.7875 12.7771 25.0517 12.7771C27.0274 12.7808 28.9669 13.3076 30.673 14.304C32.379 15.3004 33.7908 16.7308 34.7647 18.4498Z" fill="url(#paint3_radial_660_387)"/>
<path d="M25.0662 19.8261C25.0296 20.3774 23.0815 22.2792 22.4003 22.2792C16.0967 22.2792 15.0735 26.0924 15.0735 26.0924C15.3526 29.3034 17.5901 31.9481 20.2949 33.3472C20.4184 33.4112 20.5437 33.469 20.669 33.5256C20.8859 33.6217 21.1029 33.7105 21.3198 33.7921C22.2481 34.1207 23.2204 34.3083 24.2042 34.3487C35.2527 34.8668 37.393 21.1364 29.4199 17.1522C31.3008 16.9074 33.2056 17.3699 34.7649 18.4499C33.7909 16.7311 32.3791 15.3008 30.673 14.3045C28.967 13.3082 27.0275 12.7815 25.0519 12.7778C24.7888 12.7778 24.5314 12.7996 24.2729 12.8173C22.0493 12.97 19.9234 13.7892 18.1724 15.168C18.5104 15.454 18.8919 15.8367 19.6955 16.6288C21.1997 18.1102 25.0576 19.6459 25.0662 19.8261Z" fill="url(#paint4_radial_660_387)"/>
<path d="M25.0662 19.8261C25.0296 20.3774 23.0815 22.2792 22.4003 22.2792C16.0967 22.2792 15.0735 26.0924 15.0735 26.0924C15.3526 29.3034 17.5901 31.9481 20.2949 33.3472C20.4184 33.4112 20.5437 33.469 20.669 33.5256C20.8859 33.6217 21.1029 33.7105 21.3198 33.7921C22.2481 34.1207 23.2204 34.3083 24.2042 34.3487C35.2527 34.8668 37.393 21.1364 29.4199 17.1522C31.3008 16.9074 33.2056 17.3699 34.7649 18.4499C33.7909 16.7311 32.3791 15.3008 30.673 14.3045C28.967 13.3082 27.0275 12.7815 25.0519 12.7778C24.7888 12.7778 24.5314 12.7996 24.2729 12.8173C22.0493 12.97 19.9234 13.7892 18.1724 15.168C18.5104 15.454 18.8919 15.8367 19.6955 16.6288C21.1997 18.1102 25.0576 19.6459 25.0662 19.8261Z" fill="url(#paint5_radial_660_387)"/>
<path d="M17.1388 14.4313C17.3184 14.5457 17.4665 14.6453 17.5964 14.7345C17.0914 12.9667 17.0699 11.0958 17.534 9.31689C15.4893 10.3075 13.6723 11.7117 12.1982 13.4407C12.3063 13.4379 15.5219 13.3801 17.1388 14.4313Z" fill="url(#paint6_radial_660_387)"/>
<path d="M3.06237 24.613C4.7731 34.7218 13.9347 42.4398 24.3358 42.7344C33.9618 43.0066 40.1115 37.4186 42.6522 31.9673C44.8034 27.2559 45.0505 21.8954 43.3419 17.006V16.9848C43.3419 16.9677 43.3385 16.9585 43.3419 16.9637L43.346 17.0008C44.1324 22.1353 41.5208 27.1096 37.4382 30.4733L37.4256 30.5019C29.4708 36.9805 21.8581 34.4107 20.3172 33.3617C20.2097 33.3102 20.1021 33.2567 19.9946 33.201C15.3566 30.9841 13.4405 26.7584 13.8512 23.1345C12.7503 23.1508 11.6682 22.8474 10.7362 22.2611C9.80416 21.6749 9.06215 20.8309 8.60007 19.8315C9.81755 19.0856 11.2057 18.6639 12.6324 18.6067C14.059 18.5494 15.4766 18.8584 16.7499 19.5043C19.3751 20.6961 22.3624 20.8135 25.073 19.8315C25.0645 19.6513 21.2066 18.1156 19.7023 16.6342C18.8987 15.8421 18.5173 15.4606 18.1792 15.174C17.9965 15.0193 17.8056 14.8745 17.6073 14.7405C17.4757 14.6507 17.3276 14.5534 17.1497 14.4368C15.5328 13.3855 12.3172 13.4433 12.2108 13.4461H12.2005C11.322 12.3325 11.3838 8.66055 11.4341 7.89355C11.1742 7.99801 10.9261 8.12972 10.694 8.28649C9.91846 8.84001 9.19344 9.4611 8.52743 10.1425C7.76578 10.9098 7.06976 11.7396 6.44665 12.6231C5.02147 14.6435 4.01062 16.9257 3.47247 19.339C3.4616 19.3842 2.67401 22.828 3.06237 24.613Z" fill="url(#paint7_radial_660_387)"/>
<path d="M32.8447 15.8656C33.654 16.6604 34.3471 17.5654 34.9037 18.5538C35.0256 18.6453 35.1394 18.7368 35.236 18.8261C40.2618 23.4589 37.6285 30.0078 37.4324 30.474C41.515 27.1103 44.1243 22.136 43.3401 17.0015C40.8327 10.7494 36.5824 8.23054 33.1112 2.74431C32.9319 2.46463 32.7578 2.18165 32.589 1.89553C32.502 1.74608 32.4205 1.59345 32.3448 1.43796C32.2008 1.15916 32.0899 0.86452 32.0142 0.560007C32.0143 0.545955 32.0092 0.532358 31.9999 0.521808C31.9907 0.511259 31.9778 0.504497 31.9639 0.502811C31.9502 0.499063 31.9358 0.499063 31.9221 0.502811C31.9193 0.502811 31.9147 0.507959 31.9113 0.50853L31.8952 0.517682C31.0379 0.923772 25.9537 8.97465 32.8447 15.8656Z" fill="url(#paint8_radial_660_387)"/>
<path d="M35.2326 18.8231C35.1261 18.7273 35.0152 18.6364 34.9003 18.5509C34.8551 18.5166 34.8105 18.4834 34.7624 18.4496C33.2033 17.3694 31.2985 16.9067 29.4175 17.1513C37.3906 21.1379 35.2515 34.8666 24.2018 34.3484C23.218 34.308 22.2457 34.1204 21.3174 33.7919C21.1005 33.7106 20.8835 33.6218 20.6665 33.5253C20.5413 33.4681 20.416 33.4109 20.2925 33.3469L20.3079 33.3566C21.8488 34.4084 29.4593 36.9782 37.4163 30.4968L37.4289 30.4682C37.6274 30.0049 40.2607 23.4543 35.2326 18.8231Z" fill="url(#paint9_radial_660_387)"/>
<path d="M15.0733 26.0921C15.0733 26.0921 16.0965 22.2789 22.4001 22.2789C23.0813 22.2789 25.0311 20.3771 25.066 19.8252C22.3554 20.8074 19.3681 20.6902 16.7428 19.4986C15.4695 18.8527 14.052 18.5437 12.6253 18.601C11.1987 18.6582 9.8105 19.0799 8.59302 19.8258C9.0551 20.8252 9.79711 21.6692 10.7291 22.2554C11.6612 22.8417 12.7432 23.1451 13.8442 23.1288C13.4335 26.7533 15.3496 30.9789 19.9876 33.1953C20.0911 33.245 20.1883 33.2982 20.2947 33.3463C17.5876 31.9478 15.3524 29.3025 15.0733 26.0921Z" fill="url(#paint10_radial_660_387)"/>
<path d="M45.5371 15.8439C44.5739 13.5263 42.6201 11.024 41.0901 10.233C42.1814 12.3464 42.9387 14.6162 43.335 16.9615L43.3391 16.9987C40.8327 10.7494 36.5825 8.23054 33.1113 2.74431C32.932 2.46463 32.7579 2.18165 32.5891 1.89553C32.5021 1.74608 32.4206 1.59345 32.3449 1.43796C32.2009 1.15916 32.09 0.86452 32.0143 0.560007C32.0144 0.545955 32.0093 0.532358 32 0.521808C31.9907 0.511259 31.9779 0.504497 31.9639 0.502811C31.9503 0.499063 31.9359 0.499063 31.9222 0.502811C31.9193 0.502811 31.9148 0.507959 31.9113 0.50853L31.8953 0.517682L31.9039 0.502811C26.3359 3.76297 24.4467 9.79827 24.2728 12.8171C24.5314 12.7993 24.7876 12.777 25.0518 12.777C27.0275 12.7807 28.967 13.3075 30.6731 14.3039C32.3792 15.3003 33.7909 16.7307 34.7648 18.4497C33.2057 17.3695 31.3009 16.9068 29.4199 17.1514C37.393 21.1379 35.2539 34.8666 24.2042 34.3484C23.2203 34.308 22.2481 34.1204 21.3198 33.7919C21.1028 33.7107 20.8859 33.6219 20.6689 33.5254C20.5437 33.4682 20.4184 33.411 20.2949 33.3469L20.3103 33.3567C20.2028 33.3052 20.0952 33.2516 19.9877 33.1959C20.0912 33.2457 20.1885 33.2989 20.2949 33.3469C17.5878 31.9479 15.3526 29.3032 15.0735 26.0922C15.0735 26.0922 16.0967 22.279 22.4002 22.279C23.0814 22.279 25.0312 20.3772 25.0661 19.8253C25.0576 19.6457 21.1997 18.1094 19.6954 16.628C18.8918 15.8364 18.5104 15.4549 18.1723 15.1684C17.9896 15.0136 17.7987 14.8689 17.6004 14.7348C17.0953 12.9669 17.0737 11.0958 17.538 9.31668C15.4932 10.3073 13.6763 11.7115 12.2022 13.4405H12.1919C11.3134 12.3269 11.3752 8.65493 11.4255 7.88793C11.1656 7.99238 10.9175 8.1241 10.6854 8.28087C9.90984 8.83439 9.18482 9.45548 8.51882 10.1369C7.75989 10.9063 7.06673 11.738 6.44661 12.6232C5.02143 14.6436 4.01058 16.9258 3.47243 19.3391L3.44269 19.4855C3.40094 19.68 3.21391 20.6712 3.18702 20.884C3.18702 20.8668 3.18702 20.9 3.18702 20.884C3.01596 21.9065 2.90671 22.9385 2.85986 23.9743V24.0886C2.86472 29.6391 4.95153 34.9858 8.70786 39.072C12.4642 43.1583 17.6167 45.6868 23.1471 46.1578C28.6776 46.6288 34.1835 45.0081 38.5767 41.6159C42.97 38.2237 45.9309 33.3069 46.8743 27.8373C46.9115 27.5513 46.9418 27.2682 46.975 26.9793C47.4317 23.2055 46.9374 19.3779 45.5371 15.8439Z" fill="url(#paint11_linear_660_387)"/>
</g>
<defs>
<linearGradient id="paint0_linear_660_387" x1="42.6029" y1="7.58594" x2="5.80373" y2="43.0902" gradientUnits="userSpaceOnUse">
<stop offset="0.048" stop-color="#FFF44F"/>
<stop offset="0.111" stop-color="#FFE847"/>
<stop offset="0.225" stop-color="#FFC830"/>
<stop offset="0.368" stop-color="#FF980E"/>
<stop offset="0.401" stop-color="#FF8B16"/>
<stop offset="0.462" stop-color="#FF672A"/>
<stop offset="0.534" stop-color="#FF3647"/>
<stop offset="0.705" stop-color="#E31587"/>
</linearGradient>
<radialGradient id="paint1_radial_660_387" cx="0" cy="0" r="1" gradientUnits="userSpaceOnUse" gradientTransform="translate(40.9025 5.57603) scale(46.2125 46.2125)">
<stop offset="0.129" stop-color="#FFBD4F"/>
<stop offset="0.186" stop-color="#FFAC31"/>
<stop offset="0.247" stop-color="#FF9D17"/>
<stop offset="0.283" stop-color="#FF980E"/>
<stop offset="0.403" stop-color="#FF563B"/>
<stop offset="0.467" stop-color="#FF3750"/>
<stop offset="0.71" stop-color="#F5156C"/>
<stop offset="0.782" stop-color="#EB0878"/>
<stop offset="0.86" stop-color="#E50080"/>
</radialGradient>
<radialGradient id="paint2_radial_660_387" cx="0" cy="0" r="1" gradientUnits="userSpaceOnUse" gradientTransform="translate(24.016 24.4689) scale(46.2125 46.2125)">
<stop offset="0.3" stop-color="#960E18"/>
<stop offset="0.351" stop-color="#B11927" stop-opacity="0.74"/>
<stop offset="0.435" stop-color="#DB293D" stop-opacity="0.343"/>
<stop offset="0.497" stop-color="#F5334B" stop-opacity="0.094"/>
<stop offset="0.53" stop-color="#FF3750" stop-opacity="0"/>
</radialGradient>
<radialGradient id="paint3_radial_660_387" cx="0" cy="0" r="1" gradientUnits="userSpaceOnUse" gradientTransform="translate(29.5873 -4.91123) scale(33.479 33.479)">
<stop offset="0.132" stop-color="#FFF44F"/>
<stop offset="0.252" stop-color="#FFDC3E"/>
<stop offset="0.506" stop-color="#FF9D12"/>
<stop offset="0.526" stop-color="#FF980E"/>
</radialGradient>
<radialGradient id="paint4_radial_660_387" cx="0" cy="0" r="1" gradientUnits="userSpaceOnUse" gradientTransform="translate(18.9045 36.5404) scale(22.0038 22.0038)">
<stop offset="0.353" stop-color="#3A8EE6"/>
<stop offset="0.472" stop-color="#5C79F0"/>
<stop offset="0.669" stop-color="#9059FF"/>
<stop offset="1" stop-color="#C139E6"/>
</radialGradient>
<radialGradient id="paint5_radial_660_387" cx="0" cy="0" r="1" gradientUnits="userSpaceOnUse" gradientTransform="translate(26.5414 20.6819) rotate(-13.5916) scale(11.6663 13.6583)">
<stop offset="0.206" stop-color="#9059FF" stop-opacity="0"/>
<stop offset="0.278" stop-color="#8C4FF3" stop-opacity="0.064"/>
<stop offset="0.747" stop-color="#7716A8" stop-opacity="0.45"/>
<stop offset="0.975" stop-color="#6E008B" stop-opacity="0.6"/>
</radialGradient>
<radialGradient id="paint6_radial_660_387" cx="0" cy="0" r="1" gradientUnits="userSpaceOnUse" gradientTransform="translate(23.4326 3.6854) scale(15.8295 15.8295)">
<stop stop-color="#FFE226"/>
<stop offset="0.121" stop-color="#FFDB27"/>
<stop offset="0.295" stop-color="#FFC82A"/>
<stop offset="0.502" stop-color="#FFA930"/>
<stop offset="0.732" stop-color="#FF7E37"/>
<stop offset="0.792" stop-color="#FF7139"/>
</radialGradient>
<radialGradient id="paint7_radial_660_387" cx="0" cy="0" r="1" gradientUnits="userSpaceOnUse" gradientTransform="translate(35.875 -6.35507) scale(67.5374)">
<stop offset="0.113" stop-color="#FFF44F"/>
<stop offset="0.456" stop-color="#FF980E"/>
<stop offset="0.622" stop-color="#FF5634"/>
<stop offset="0.716" stop-color="#FF3647"/>
<stop offset="0.904" stop-color="#E31587"/>
</radialGradient>
<radialGradient id="paint8_radial_660_387" cx="0" cy="0" r="1" gradientUnits="userSpaceOnUse" gradientTransform="translate(30.1826 -2.59974) rotate(83.976) scale(49.4998 32.4862)">
<stop stop-color="#FFF44F"/>
<stop offset="0.06" stop-color="#FFE847"/>
<stop offset="0.168" stop-color="#FFC830"/>
<stop offset="0.304" stop-color="#FF980E"/>
<stop offset="0.356" stop-color="#FF8B16"/>
<stop offset="0.455" stop-color="#FF672A"/>
<stop offset="0.57" stop-color="#FF3647"/>
<stop offset="0.737" stop-color="#E31587"/>
</radialGradient>
<radialGradient id="paint9_radial_660_387" cx="0" cy="0" r="1" gradientUnits="userSpaceOnUse" gradientTransform="translate(23.0596 9.54827) scale(42.1647 42.1647)">
<stop offset="0.137" stop-color="#FFF44F"/>
<stop offset="0.48" stop-color="#FF980E"/>
<stop offset="0.592" stop-color="#FF5634"/>
<stop offset="0.655" stop-color="#FF3647"/>
<stop offset="0.904" stop-color="#E31587"/>
</radialGradient>
<radialGradient id="paint10_radial_660_387" cx="0" cy="0" r="1" gradientUnits="userSpaceOnUse" gradientTransform="translate(34.1899 12.0162) scale(46.149 46.149)">
<stop offset="0.094" stop-color="#FFF44F"/>
<stop offset="0.231" stop-color="#FFE141"/>
<stop offset="0.509" stop-color="#FFAF1E"/>
<stop offset="0.626" stop-color="#FF980E"/>
</radialGradient>
<linearGradient id="paint11_linear_660_387" x1="42.1608" y1="7.39605" x2="10.8484" y2="38.7079" gradientUnits="userSpaceOnUse">
<stop offset="0.167" stop-color="#FFF44F" stop-opacity="0.8"/>
<stop offset="0.266" stop-color="#FFF44F" stop-opacity="0.634"/>
<stop offset="0.489" stop-color="#FFF44F" stop-opacity="0.217"/>
<stop offset="0.6" stop-color="#FFF44F" stop-opacity="0"/>
</linearGradient>
<clipPath id="clip0_660_387">
<rect width="50" height="46.8817" fill="white" transform="translate(0 0.5)"/>
</clipPath>
</defs>
</svg>
