<svg width="50" height="50" viewBox="0 0 50 50" fill="none" xmlns="http://www.w3.org/2000/svg">
<g clip-path="url(#clip0_660_398)">
<path d="M48.7253 22.804L27.1956 1.2751C25.9565 0.0352539 23.9456 0.0352539 22.7046 1.2751L18.2343 5.74619L23.9054 11.4173C25.2237 10.9724 26.7346 11.2708 27.785 12.3212C28.8409 13.3782 29.137 14.9021 28.6811 16.2247L34.1468 21.6907C35.469 21.2349 36.9952 21.5294 38.0507 22.5872C39.5272 24.0626 39.5272 26.4544 38.0507 27.9306C37.6998 28.2816 37.2832 28.5601 36.8246 28.7501C36.3661 28.9401 35.8746 29.0379 35.3782 29.0379C34.8818 29.0379 34.3904 28.9401 33.9318 28.7501C33.4733 28.5601 33.0566 28.2816 32.7057 27.9306C32.1786 27.403 31.8192 26.7314 31.6729 26.0001C31.5266 25.2688 31.5998 24.5105 31.8835 23.8208L26.7866 18.7239L26.7858 32.1384C27.1556 32.3205 27.4932 32.5617 27.7854 32.8524C29.2612 34.3278 29.2612 36.7188 27.7854 38.1974C26.3093 39.6728 23.9167 39.6728 22.4421 38.1974C20.9663 36.7192 20.9663 34.3282 22.4421 32.8524C22.7956 32.4983 23.2162 32.2181 23.6792 32.0282V18.4896C23.2158 18.3002 22.7951 18.0198 22.4421 17.6649C21.3241 16.5478 21.055 14.9071 21.6284 13.5337L16.0374 7.94268L1.27488 22.7044C0.679304 23.3002 0.344727 24.1081 0.344727 24.9505C0.344727 25.7929 0.679304 26.6008 1.27488 27.1966L22.805 48.7255C24.0448 49.9653 26.055 49.9653 27.2968 48.7255L48.7257 27.2966C49.3211 26.7006 49.6556 25.8927 49.6555 25.0502C49.6554 24.2078 49.3208 23.3998 48.7253 22.804Z" fill="#F34F29"/>
</g>
<defs>
<clipPath id="clip0_660_398">
<rect width="50" height="50" fill="white"/>
</clipPath>
</defs>
</svg>
