<svg width="50" height="50" viewBox="0 0 50 50" fill="none" xmlns="http://www.w3.org/2000/svg">
<rect width="50" height="50" rx="5" fill="white"/>
<g clip-path="url(#clip0_667_5)">
<path d="M25.0001 6.66647C20.1892 6.61758 15.5557 8.48081 12.118 11.8467C8.68023 15.2125 6.71952 19.8056 6.66675 24.6165C6.68529 28.4184 7.90832 32.1167 10.1602 35.18C12.4121 38.2434 15.5769 40.5143 19.2001 41.6665C20.1167 41.8331 20.4501 41.2831 20.4501 40.7998C20.4501 40.3165 20.4501 39.2498 20.4501 37.7498C15.3501 38.8331 14.2667 35.3498 14.2667 35.3498C13.9272 34.2563 13.2055 33.3215 12.2334 32.7165C10.5667 31.6165 12.3667 31.6331 12.3667 31.6331C12.9428 31.7101 13.494 31.9166 13.9789 32.237C14.4639 32.5574 14.8699 32.9834 15.1667 33.4831C15.684 34.38 16.5326 35.0379 17.5301 35.3154C18.5276 35.5928 19.5941 35.4675 20.5001 34.9665C20.5933 34.0538 21.0066 33.2035 21.6667 32.5665C17.6001 32.1165 13.3334 30.5831 13.3334 23.6998C13.297 21.9043 13.9605 20.165 15.1834 18.8498C14.6265 17.3082 14.6922 15.6103 15.3667 14.1165C15.3667 14.1165 16.9167 13.6331 20.3667 15.9498C23.3699 15.1495 26.5303 15.1495 29.5334 15.9498C33.0334 13.6331 34.5334 14.1165 34.5334 14.1165C35.2079 15.6103 35.2737 17.3082 34.7167 18.8498C35.9681 20.1409 36.6675 21.8685 36.6667 23.6665C36.6667 30.5665 32.3667 32.0831 28.3334 32.5331C28.775 32.9619 29.1162 33.4832 29.3323 34.0596C29.5485 34.6359 29.6342 35.253 29.5834 35.8665V40.7831C29.5834 40.7831 29.9167 41.8331 30.8334 41.6498C34.4463 40.4905 37.6005 38.2191 39.8454 35.16C42.0903 32.101 43.3111 28.4108 43.3334 24.6165C43.2806 19.8056 41.3199 15.2125 37.8822 11.8467C34.4444 8.48081 29.811 6.61758 25.0001 6.66647Z" fill="#231F20"/>
</g>
<defs>
<clipPath id="clip0_667_5">
<rect x="5" y="5" width="40" height="40" rx="5" fill="white"/>
</clipPath>
</defs>
</svg>
