<svg width="50" height="50" viewBox="0 0 50 50" fill="none" xmlns="http://www.w3.org/2000/svg">
<path d="M5.1516 20.0685L24.9934 45.8565L3.24535 29.7149C2.64867 29.2667 2.39378 28.4864 2.6223 27.7842L5.14867 20.0645L5.1516 20.0685Z" fill="#FCA326"/>
<path d="M16.7288 20.0645L25.0012 45.8535L24.9934 45.8564L5.15161 20.0684L5.15747 20.0645H16.7288Z" fill="#FC6D26"/>
<path d="M33.2746 20.0645L25.0021 45.8564L25.0012 45.8535L16.7288 20.0645H16.7375H33.2659H33.2746Z" fill="#E24329"/>
<path d="M44.8529 20.0684L25.0022 45.8564L33.2747 20.0645H44.8469L44.8529 20.0684Z" fill="#FC6D26"/>
<path d="M47.3821 27.7846C47.6008 28.4867 47.3557 29.2671 46.7502 29.7153L25.0022 45.8569L44.8529 20.0688L44.8557 20.0649L47.3821 27.7846Z" fill="#FCA326"/>
<path d="M39.8899 4.72876L44.8469 20.0647H33.2747H33.2659L38.2317 4.72876C38.5119 3.94849 39.6174 3.94849 39.8899 4.72876Z" fill="#E24329"/>
<path d="M16.7375 20.0647H16.7288H5.15747L10.1145 4.72876C10.3948 3.94849 11.5002 3.94849 11.7727 4.72876C11.7727 4.72876 16.7288 20.0647 16.7375 20.0647Z" fill="#E24329"/>
</svg>
