<svg width="50" height="51" viewBox="0 0 50 51" fill="none" xmlns="http://www.w3.org/2000/svg">
<path d="M45.4282 21.4196H43.7501V21.3332H25.0001V29.6665H36.774C35.0563 34.5175 30.4407 37.9998 25.0001 37.9998C18.097 37.9998 12.5001 32.403 12.5001 25.4998C12.5001 18.5967 18.097 12.9998 25.0001 12.9998C28.1865 12.9998 31.0855 14.2019 33.2928 16.1655L39.1855 10.2728C35.4647 6.80505 30.4876 4.6665 25.0001 4.6665C13.4949 4.6665 4.16675 13.9946 4.16675 25.4998C4.16675 37.005 13.4949 46.3332 25.0001 46.3332C36.5053 46.3332 45.8334 37.005 45.8334 25.4998C45.8334 24.103 45.6897 22.7394 45.4282 21.4196Z" fill="#FFC107"/>
<path d="M6.56885 15.803L13.4136 20.8228C15.2657 16.2373 19.7511 12.9998 25.0001 12.9998C28.1866 12.9998 31.0855 14.2019 33.2928 16.1655L39.1855 10.2728C35.4647 6.80505 30.4876 4.6665 25.0001 4.6665C16.998 4.6665 10.0584 9.18421 6.56885 15.803Z" fill="#FF3D00"/>
<path d="M25 46.3336C30.3812 46.3336 35.2708 44.2742 38.9677 40.9252L32.5198 35.469C30.4281 37.0534 27.8281 38.0002 25 38.0002C19.5812 38.0002 14.9802 34.545 13.2469 29.7231L6.45312 34.9575C9.90104 41.7044 16.9031 46.3336 25 46.3336Z" fill="#4CAF50"/>
<path d="M45.4281 21.42H43.75V21.3335H25V29.6668H36.774C35.949 31.997 34.45 34.0064 32.5167 35.47C32.5177 35.4689 32.5188 35.4689 32.5198 35.4679L38.9677 40.9241C38.5115 41.3387 45.8333 35.9168 45.8333 25.5002C45.8333 24.1033 45.6896 22.7397 45.4281 21.42Z" fill="#1976D2"/>
</svg>
