<svg width="50" height="50" viewBox="0 0 50 50" fill="none" xmlns="http://www.w3.org/2000/svg">
<g clip-path="url(#clip0_660_394)">
<path d="M0 0H50V50H0V0Z" fill="#F7DF1E"/>
<path d="M13.1468 41.7839L16.9732 39.4683C17.7113 40.7771 18.3828 41.8844 19.9936 41.8844C21.5375 41.8844 22.5109 41.2805 22.5109 38.9313V22.9551H27.2097V38.9977C27.2097 43.8644 24.357 46.0795 20.195 46.0795C16.4362 46.0795 14.2543 44.1328 13.1467 41.7835" fill="black"/>
<path d="M29.762 41.28L33.5878 39.0648C34.595 40.7096 35.9039 41.9178 38.2197 41.9178C40.1666 41.9178 41.4081 40.9444 41.4081 39.6018C41.4081 37.9908 40.1328 37.4202 37.9847 36.4807L36.8103 35.9769C33.4202 34.534 31.1714 32.7216 31.1714 28.8953C31.1714 25.3712 33.8564 22.686 38.052 22.686C41.0391 22.686 43.1871 23.7266 44.7309 26.4452L41.0724 28.7945C40.2669 27.3514 39.3945 26.781 38.052 26.781C36.6759 26.781 35.8032 27.6536 35.8032 28.7945C35.8032 30.2042 36.6759 30.7749 38.6895 31.6476L39.8641 32.151C43.8582 33.8629 46.107 35.6079 46.107 39.5347C46.107 43.7639 42.7843 46.0795 38.3205 46.0795C33.9573 46.0795 31.1378 43.9987 29.762 41.28Z" fill="black"/>
</g>
<defs>
<clipPath id="clip0_660_394">
<rect width="50" height="50" rx="5" fill="white"/>
</clipPath>
</defs>
</svg>
