<svg width="140" height="128" viewBox="0 0 140 128" fill="none" xmlns="http://www.w3.org/2000/svg">
<rect width="140" height="127.54" rx="10" fill="#FFF5EE"/>
<path fill-rule="evenodd" clip-rule="evenodd" d="M20 18H29.322V79.8644H66.1864V87.4915H20L20 18Z" fill="black"/>
<path fill-rule="evenodd" clip-rule="evenodd" d="M91.6102 36.2205C97.9661 35.373 104.746 36.6442 109.831 40.8815C115.339 44.6951 118.305 51.4747 118.729 57.8307C119.576 65.4578 118.729 73.0849 114.492 79.4408C110.678 84.5256 104.746 87.9154 97.9661 88.3391C91.6102 89.1866 84.4068 87.9154 78.8983 83.6781C73.8136 79.4408 71.2712 73.0849 70.4237 66.729C69.5763 59.9493 70.4237 52.3222 74.661 46.39C78.0509 40.4578 84.8305 36.6442 91.6102 36.2205ZM92.8814 43.4239C97.1186 43.0002 101.78 44.2713 105.169 47.2374C108.136 50.6273 109.831 54.8646 110.254 59.1018C110.678 63.7629 110.254 68.8476 108.136 73.0849C106.017 77.3222 102.203 80.2883 97.5424 81.1357C93.3051 81.9832 88.6441 80.712 85.678 78.1696C82.2881 75.6273 80.1695 71.8137 79.322 68.0001C78.4746 62.4917 78.8983 56.9832 81.0169 51.8985C83.1356 47.2374 87.7966 43.8476 92.8814 43.4239Z" fill="black"/>
<path fill-rule="evenodd" clip-rule="evenodd" d="M20 98.5083H120V109.102H20V98.5083Z" fill="#3492FF"/>
</svg>
