<svg width="50" height="51" viewBox="0 0 50 51" fill="none" xmlns="http://www.w3.org/2000/svg">
<rect y="0.5" width="50" height="50" rx="5" fill="white"/>
<g clip-path="url(#clip0_666_3)">
<path d="M34.6863 43.0061C34.5375 43.0848 34.55 43.1098 34.6925 43.0373C34.7388 43.0186 34.7775 42.9923 34.8113 42.9611C34.8113 42.9348 34.8113 42.9348 34.6863 43.0061ZM34.9862 42.8436C34.915 42.9023 34.915 42.9023 35 42.8636C35.045 42.8373 35.085 42.8123 35.085 42.8048C35.085 42.7711 35.065 42.7786 34.9862 42.8436ZM35.1813 42.7261C35.11 42.7848 35.11 42.7848 35.195 42.7461C35.2413 42.7198 35.28 42.6923 35.28 42.6861C35.28 42.6548 35.26 42.6611 35.1813 42.7261ZM35.3787 42.6098C35.3075 42.6686 35.3075 42.6686 35.39 42.6286C35.4363 42.6036 35.475 42.5773 35.475 42.5698C35.475 42.5386 35.455 42.5448 35.3787 42.6098ZM35.645 42.4336C35.5088 42.5248 35.4613 42.5836 35.5863 42.5186C35.67 42.4673 35.8125 42.3548 35.7875 42.3548C35.7337 42.3748 35.6887 42.4086 35.6437 42.4336H35.645ZM23.6912 5.51358C23.6 5.51983 23.3263 5.54483 23.0863 5.56483C17.4012 6.07983 12.0825 9.13983 8.71125 13.8536C6.8475 16.4373 5.6375 19.4386 5.18125 22.5898C5.02 23.6898 5 24.0148 5 25.5061C5 26.9961 5.02 27.3161 5.18125 28.4161C6.27 35.9298 11.615 42.2373 18.86 44.5748C20.1638 44.9911 21.53 45.2786 23.0863 45.4548C23.6912 45.5198 26.3075 45.5198 26.9125 45.4548C29.6025 45.1548 31.8738 44.4911 34.1213 43.3448C34.4663 43.1698 34.5312 43.1236 34.485 43.0848C33.385 41.6336 32.305 40.1811 31.2238 38.7161L28.0275 34.3998L24.0238 28.4686C22.6887 26.4836 21.3487 24.5036 19.9875 22.5386C19.9738 22.5386 19.9562 25.1748 19.9487 28.3898C19.935 34.0211 19.935 34.2498 19.8637 34.3798C19.7925 34.5361 19.675 34.6661 19.5187 34.7386C19.395 34.7973 19.2838 34.8098 18.6925 34.8098H18.0163L17.84 34.6998C17.73 34.6286 17.6388 34.5298 17.58 34.4136L17.495 34.2373L17.5013 26.3986L17.515 18.5598L17.6388 18.4036C17.7175 18.3073 17.815 18.2286 17.925 18.1698C18.0887 18.0911 18.1538 18.0786 18.83 18.0786C19.6237 18.0786 19.755 18.1098 19.9637 18.3386C21.5837 20.7536 23.1987 23.1748 24.7875 25.6036C27.3862 29.5436 30.9338 34.9198 32.6775 37.5573L35.8488 42.3561L36.005 42.2523C37.5288 41.2361 38.915 40.0261 40.1113 38.6461C42.6313 35.7611 44.2663 32.2123 44.82 28.4248C44.9813 27.3248 45.0013 26.9986 45.0013 25.5086C45.0013 24.0173 44.9813 23.6986 44.82 22.5986C43.7313 15.0848 38.3862 8.77733 31.1413 6.43858C29.7863 6.00983 28.3925 5.71733 26.9812 5.56733C26.6025 5.52858 24.0175 5.48233 23.6925 5.51608L23.6912 5.51358ZM31.875 17.6098C32.0637 17.6998 32.2062 17.8698 32.2712 18.0648C32.305 18.1698 32.3113 20.3436 32.305 25.2398L32.2913 32.2698L31.055 30.3698L29.8113 28.4686V23.3648C29.8113 20.0561 29.825 18.2011 29.8425 18.1098C29.9013 17.9011 30.0438 17.7261 30.2337 17.6161C30.3888 17.5373 30.4487 17.5311 31.0675 17.5311C31.6462 17.5311 31.745 17.5373 31.875 17.6098Z" fill="black"/>
</g>
<defs>
<clipPath id="clip0_666_3">
<rect x="5" y="5.5" width="40" height="40" rx="5" fill="white"/>
</clipPath>
</defs>
</svg>
