<svg width="140" height="68" viewBox="0 0 140 68" fill="none" xmlns="http://www.w3.org/2000/svg">
<rect width="140" height="67.074" rx="10" fill="#FFF5EE"/>
<path d="M20 10V51.0346H47.7992V57.9133H70V51.0346H120V10H20Z" fill="#CB3837"/>
<path d="M37.0039 17H26V23.8786V44.2774H37.0039V23.8786H42.6023V44.2774H48.2008V23.8786V17H37.0039Z" fill="white"/>
<path d="M53.7993 17V42.8542V44.2773V51.156H64.9962V44.2773H76.0001V17H53.7993ZM70.4016 37.3987H64.9962V23.8786H70.4016V37.3987Z" fill="white"/>
<path d="M92.6025 17H81.5986V23.8786V44.2774H92.6025V23.8786H98.2009V44.2774H103.799V23.8786H109.398V44.2774H114.996V23.8786V17.4744V17H92.6025Z" fill="white"/>
</svg>
