<svg width="50" height="51" viewBox="0 0 50 51" fill="none" xmlns="http://www.w3.org/2000/svg">
<path d="M44.1862 10.6819C36.003 0.0850595 20.7776 -1.87119 10.1804 6.31357C-0.415343 14.4983 -2.36964 29.7237 5.81513 40.3194C14.0015 50.9147 29.228 52.8679 39.8222 44.6815C50.4136 36.4968 52.3683 21.2761 44.1862 10.6819Z" fill="#F37036"/>
<path d="M35.5773 9.9389C34.7427 10.0056 33.9513 10.3377 33.3191 10.8866C32.579 11.5291 32.1067 12.4257 31.9953 13.3994C31.8839 14.3732 32.1416 15.3533 32.7175 16.1463C33.2926 16.9397 34.1442 17.4887 35.1043 17.6851C36.0643 17.8814 37.0631 17.7108 37.9035 17.2069H37.9043L37.9652 17.2678C38.242 17.1091 38.4995 16.9191 38.7328 16.7014C39.4521 15.9404 39.8479 14.9298 39.8365 13.8826C39.8251 12.8355 39.4076 11.8337 38.6718 11.0885V11.0877L35.2171 14.5209L35.1562 14.4604L38.6109 11.0256C38.211 10.6401 37.7338 10.3439 37.2108 10.1567C36.6878 9.96944 36.131 9.89548 35.5773 9.93968V9.9389ZM31.0289 15.5588C29.3726 15.5561 26.6683 17.4334 20.0652 24.0366L20.098 24.0701C20.0621 24.0576 20.0257 24.0565 20.0257 24.0565L17.5398 26.5205C17.476 26.5813 17.4337 26.6612 17.4195 26.7481C17.4052 26.8351 17.4198 26.9243 17.4609 27.0022C17.502 27.0801 17.5675 27.1425 17.6473 27.1798C17.7271 27.2171 17.8169 27.2273 17.9031 27.2088L22.1664 26.2994C22.1852 26.2818 22.1978 26.2585 22.2023 26.233L22.2968 26.3307L20.8437 27.7721H20.7734L12.1461 36.4674L14.914 39.133C14.9914 39.2028 15.0891 39.2461 15.1928 39.2565C15.2965 39.267 15.4008 39.2441 15.4906 39.1912C15.5812 39.1387 15.6537 39.06 15.6987 38.9655C15.7437 38.8709 15.7589 38.765 15.7425 38.6616L15.3382 36.9037C15.313 36.8684 15.2995 36.8261 15.2995 36.7826C15.2995 36.7392 15.313 36.6969 15.3382 36.6616C19.1172 34.86 22.6314 32.5491 25.7828 29.7932L24.0113 28.0209L24.0449 28.0155L22.9941 26.9651L23.0613 26.8971L23.1324 26.9698L23.0957 27.0053L25.8836 29.8541V29.853C31.2273 24.7928 35.0203 20.7252 34.0339 17.9877C33.989 17.6604 33.837 17.3571 33.6015 17.1252V17.1268C33.5417 17.0822 33.4787 17.0423 33.4128 17.0073C33.3804 16.9729 33.3519 16.9377 33.3175 16.9041L33.2918 16.9299C33.2194 16.8857 33.1433 16.8478 33.0644 16.8166L33.1773 16.7026C32.4757 16.0776 31.896 15.5604 31.0289 15.558V15.5588ZM12.0859 36.5194L10.066 38.5397V38.5412C9.9935 38.5861 9.93716 38.6529 9.90507 38.7319C9.87299 38.8108 9.86682 38.898 9.88746 38.9807C9.90738 39.0634 9.95288 39.1377 10.0175 39.193C10.0821 39.2483 10.1625 39.2819 10.2472 39.2889L15.1972 39.6307L12.0859 36.5194Z" fill="white"/>
<path d="M35.918 9.60547C34.7843 9.60406 33.6955 10.0489 32.8871 10.8438C32.3119 11.4324 31.9181 12.1741 31.7526 12.9803C31.587 13.7865 31.6568 14.6233 31.9535 15.391C30.1016 14.598 27.5961 15.9809 19.8028 23.7727C19.7973 23.7846 19.7925 23.7969 19.7883 23.8094C19.7724 23.8166 19.7569 23.8247 19.7418 23.8336L17.2774 26.3195C17.1592 26.4355 17.0817 26.5864 17.0561 26.75C17.0306 26.9135 17.0584 27.0809 17.1356 27.2273C17.2044 27.3432 17.3019 27.4394 17.4187 27.5067C17.5355 27.5741 17.6676 27.6102 17.8024 27.6117L17.9246 27.5324L21.2153 26.8305L19.641 28.4191C19.6319 28.44 19.6248 28.4617 19.6199 28.484L11.9051 36.218C11.8743 36.2438 11.8489 36.2754 11.8301 36.3109L9.84338 38.2992C9.74437 38.4037 9.67671 38.534 9.64812 38.6751C9.61953 38.8162 9.63115 38.9625 9.68167 39.0973C9.73347 39.2313 9.8213 39.3483 9.93546 39.4355C10.0496 39.5227 10.1856 39.5767 10.3285 39.5914L15.2574 39.9352C15.3415 39.9056 15.4131 39.8485 15.4606 39.7731C15.5029 39.7142 15.5257 39.6434 15.5257 39.5709C15.5257 39.4984 15.5029 39.4276 15.4606 39.3688L15.4504 39.359C15.5568 39.3031 15.6505 39.226 15.7258 39.1324C15.805 39.0297 15.8603 38.9106 15.8877 38.7839C15.9151 38.6571 15.914 38.5259 15.8844 38.3996L15.5 36.7641C19.1877 35.0017 22.6429 32.7894 25.7867 30.1777C25.8173 30.1951 25.8498 30.2086 25.8836 30.218C25.9828 30.2106 26.0758 30.168 26.1461 30.0977C31.4391 25.0859 34.5504 21.6516 34.5504 18.925C34.5619 18.5468 34.5049 18.1696 34.3821 17.8117C34.8591 18.0095 35.3679 18.1194 35.884 18.1359L35.8782 18.1375C36.589 18.1158 37.2838 17.9214 37.9028 17.5711C37.9033 17.5712 37.9038 17.5714 37.9043 17.5715C37.9844 17.5955 38.0707 17.5878 38.1453 17.55C38.444 17.3741 38.7162 17.1569 38.9539 16.9047C39.3568 16.5094 39.6768 16.0379 39.8953 15.5176C40.1138 14.9972 40.2264 14.4386 40.2266 13.8742C40.2265 13.3099 40.1139 12.7513 39.8955 12.2309C39.677 11.7106 39.3571 11.239 38.9543 10.8438C38.9399 10.8307 38.9245 10.8188 38.9082 10.8082C38.1041 10.0361 37.0324 9.60523 35.9176 9.60586L35.918 9.60547ZM35.884 10.2977C36.6734 10.3024 37.4396 10.5649 38.066 11.0453L34.9145 14.216C34.9037 14.228 34.8937 14.2408 34.8848 14.2543C34.828 14.3118 34.7947 14.3884 34.7914 14.4691C34.7914 14.5179 34.8024 14.5661 34.8236 14.61C34.8448 14.654 34.8756 14.6926 34.9137 14.7231H34.9145L37.2973 17.1059C36.6451 17.3903 35.9221 17.4711 35.2232 17.3378C34.5242 17.2044 33.8818 16.8632 33.3801 16.3586C32.3699 15.343 32.077 13.818 32.6172 12.4949C33.1574 11.1707 34.4453 10.3055 35.884 10.2977ZM38.6653 11.6383C39.1806 12.2617 39.4615 13.0458 39.4594 13.8547C39.4579 14.8023 39.0803 15.7105 38.4094 16.3797C38.2749 16.5062 38.1316 16.6231 37.9805 16.7293L36.0574 14.8359L35.6813 14.4598L35.7848 14.3563L38.6649 11.6375L38.6653 11.6383ZM38.5223 13.2762C38.4516 13.2538 38.3752 13.2581 38.3074 13.2883C38.2404 13.323 38.1899 13.3828 38.1668 13.4547C38.1555 13.4906 38.1514 13.5283 38.1548 13.5658C38.1581 13.6033 38.1689 13.6397 38.1864 13.6731C38.2558 13.819 38.2832 13.9814 38.2654 14.142C38.2477 14.3026 38.1855 14.4551 38.086 14.5824C38.0605 14.607 38.0405 14.6367 38.0274 14.6696C38.0143 14.7024 38.0083 14.7377 38.0098 14.7731C38.0114 14.8449 38.0371 14.9137 38.086 14.9652C38.138 14.9851 38.1956 14.9851 38.2477 14.9652C38.2947 14.977 38.3439 14.9756 38.3902 14.9614C38.4365 14.9471 38.4779 14.9205 38.5102 14.8844C38.6764 14.6806 38.7816 14.4339 38.8138 14.1729C38.8459 13.9118 38.8036 13.647 38.6918 13.409V13.4105C38.6537 13.3465 38.5934 13.2986 38.5223 13.2762ZM30.9922 15.9023C31.4636 15.918 31.9173 16.086 32.2852 16.3813C31.8888 16.4383 31.5215 16.6219 31.2379 16.9047L22.3289 25.7738L20.5805 24.0254C25.2008 19.427 28.0258 17.025 29.7821 16.2379C30.1438 16.0097 30.5646 15.8933 30.9922 15.9023ZM32.541 17.0586C32.8402 17.0586 33.1271 17.1772 33.3391 17.3883C33.4519 17.4941 33.5409 17.6227 33.6001 17.7655C33.6593 17.9084 33.6874 18.0622 33.6824 18.2168C33.6773 18.3708 33.6405 18.5221 33.5743 18.6612C33.5081 18.8003 33.414 18.9243 33.2977 19.0254L23.825 27.2699L22.8028 26.2477L31.743 17.3883C31.955 17.1773 32.2419 17.0585 32.541 17.0586ZM33.7106 19.675C33.0504 22.293 29.5516 25.8402 25.9031 29.2871L24.4278 27.8133L33.7106 19.675ZM20.0653 24.5418L20.1723 24.6473L21.5446 26.0195L17.7828 26.8242L20.0653 24.5418ZM22.3282 26.8231L22.3297 26.8246L22.786 27.2914C22.7879 27.3024 22.7902 27.3134 22.793 27.3242L22.8235 27.3289L22.9203 27.4281L23.2407 27.7563L21.1371 28.0141L22.3285 26.8227L22.3282 26.8231ZM23.8387 28.4152L25.2364 29.8121C22.1458 32.382 18.7544 34.5668 15.1367 36.3184C15.0193 36.3743 14.9249 36.4692 14.8695 36.5869C14.8142 36.7047 14.8013 36.8379 14.8332 36.9641L15.2375 38.7219C15.2524 38.7425 15.2605 38.7673 15.2605 38.7928C15.2605 38.8182 15.2524 38.843 15.2375 38.8637C15.2153 38.8836 15.1865 38.8946 15.1567 38.8946C15.1268 38.8946 15.098 38.8836 15.0758 38.8637L12.6922 36.4606L20.0391 29.0059L23.8387 28.4152ZM12.1461 36.9855L12.4856 37.3035L14.2403 39.0582L10.3278 38.8051L12.1461 36.9855Z" fill="#F37036"/>
</svg>
