<svg width="57" height="50" viewBox="0 0 57 50" fill="none" xmlns="http://www.w3.org/2000/svg">
<g clip-path="url(#clip0_660_391)">
<path d="M46.1586 16.1894C45.5762 15.9889 44.9728 15.7993 44.3514 15.6199C44.4535 15.2031 44.5473 14.7917 44.6306 14.3873C45.9986 7.74669 45.1042 2.39698 42.0499 0.635634C39.1211 -1.05327 34.3314 0.707684 29.4941 4.9175C29.0289 5.32231 28.5624 5.7509 28.0962 6.20008C27.7855 5.9029 27.4753 5.6157 27.1659 5.34099C22.0962 0.83959 17.0146 -1.05736 13.9633 0.709082C11.0374 2.40288 10.1709 7.43211 11.4023 13.7254C11.5212 14.3333 11.6602 14.9541 11.8174 15.5852C11.0982 15.7894 10.4039 16.007 9.73959 16.2386C3.79591 18.3108 0 21.5585 0 24.9272C0 28.4064 4.07491 31.8961 10.2657 34.0121C10.7543 34.1791 11.2612 34.337 11.7836 34.4869C11.6141 35.1695 11.4666 35.8384 11.3427 36.4909C10.1686 42.675 11.0855 47.5854 14.0037 49.2685C17.0178 51.0067 22.0764 49.2201 27.0022 44.9143C27.3916 44.5739 27.7823 44.213 28.1737 43.8347C28.681 44.3232 29.1876 44.7856 29.6914 45.2193C34.4626 49.3251 39.175 50.983 42.0904 49.2952C45.1016 47.552 46.0802 42.2771 44.8097 35.8592C44.7127 35.3691 44.5997 34.8683 44.4729 34.3587C44.8282 34.2537 45.1769 34.1452 45.517 34.0325C51.9529 31.9001 56.1404 28.4529 56.1404 24.9272C56.1404 21.5463 52.222 18.2767 46.1586 16.1894ZM44.7627 31.756C44.4557 31.8577 44.1408 31.9559 43.8198 32.0511C43.1093 29.8018 42.1504 27.41 40.9769 24.9389C42.0967 22.5266 43.0186 20.1654 43.7092 17.9307C44.2835 18.0968 44.8409 18.2721 45.378 18.4571C50.5731 20.2455 53.7421 22.8897 53.7421 24.9272C53.7421 27.0975 50.3197 29.9148 44.7627 31.756ZM42.457 36.325C43.0188 39.1629 43.099 41.7287 42.7269 43.7344C42.3925 45.5368 41.7201 46.7384 40.8887 47.2197C39.1194 48.2437 35.3359 46.9126 31.2555 43.4013C30.7877 42.9988 30.3166 42.569 29.8439 42.1141C31.4258 40.384 33.0068 38.3727 34.5498 36.139C37.2637 35.8982 39.8278 35.5045 42.1531 34.967C42.2676 35.4289 42.3693 35.882 42.457 36.325ZM19.1395 47.0427C17.4109 47.6532 16.0342 47.6707 15.202 47.1908C13.4312 46.1694 12.695 42.2268 13.6992 36.9382C13.8142 36.3325 13.9511 35.7103 14.1089 35.0744C16.4087 35.5829 18.9539 35.9489 21.6744 36.1694C23.2278 38.3552 24.8545 40.3642 26.4937 42.1234C26.1355 42.4691 25.7788 42.7983 25.4241 43.1085C23.2459 45.0124 21.0631 46.3633 19.1395 47.0427ZM11.0414 31.7428C8.30391 30.8071 6.04321 29.5911 4.49361 28.2641C3.1012 27.0717 2.3982 25.8878 2.3982 24.9272C2.3982 22.8829 5.44593 20.2755 10.529 18.5033C11.1458 18.2882 11.7914 18.0855 12.4615 17.8952C13.164 20.1804 14.0855 22.5696 15.1976 24.9855C14.0711 27.4374 13.1365 29.8647 12.4271 32.1766C11.9494 32.0393 11.4866 31.8948 11.0414 31.7428ZM13.7559 13.2649C12.7009 7.8729 13.4016 3.80538 15.1648 2.78471C17.043 1.69738 21.1962 3.24768 25.5734 7.13442C25.8532 7.38285 26.1341 7.64286 26.4158 7.91187C24.7847 9.66333 23.173 11.6573 21.6333 13.8302C18.993 14.0749 16.4656 14.468 14.1419 14.9944C13.9958 14.4068 13.8664 13.8294 13.7559 13.2649ZM37.9723 19.2445C37.4168 18.285 36.8465 17.3482 36.2652 16.4369C38.0564 16.6634 39.7726 16.9639 41.3842 17.3318C40.9004 18.8825 40.2973 20.5038 39.5874 22.166C39.0782 21.1991 38.5395 20.2243 37.9723 19.2445ZM28.097 9.62585C29.2032 10.8243 30.311 12.1624 31.4006 13.6141C30.3026 13.5623 29.191 13.5353 28.0702 13.5353C26.96 13.5353 25.8565 13.5617 24.7653 13.6126C25.856 12.1743 26.9735 10.8381 28.097 9.62585ZM18.1583 19.2611C17.6034 20.2233 17.0748 21.1928 16.5735 22.1642C15.8751 20.5078 15.2777 18.8791 14.7896 17.3064C16.3914 16.948 18.0995 16.6549 19.8793 16.4327C19.2897 17.3524 18.7147 18.2963 18.1583 19.2611ZM19.9306 33.5927C18.0917 33.3876 16.3579 33.1096 14.7565 32.761C15.2524 31.1603 15.863 29.4967 16.5762 27.8047C17.0788 28.7754 17.6095 29.7453 18.1678 30.7096C18.7365 31.692 19.3258 32.6543 19.9306 33.5927ZM28.1633 40.3976C27.0266 39.1712 25.8928 37.8145 24.7855 36.3553C25.8604 36.3974 26.9564 36.419 28.0702 36.419C29.2145 36.419 30.3457 36.3933 31.4591 36.3437C30.3658 37.8292 29.262 39.188 28.1633 40.3976ZM39.6103 27.7185C40.3606 29.4288 40.9932 31.0836 41.4954 32.6571C39.8677 33.0284 38.1102 33.3275 36.2586 33.5498C36.8414 32.6262 37.4166 31.6733 37.9819 30.6931C38.5538 29.7014 39.0968 28.7082 39.6103 27.7185ZM35.9045 29.4949C35.0269 31.0166 34.126 32.4691 33.2113 33.8403C31.5454 33.9594 29.8243 34.0207 28.0702 34.0207C26.3231 34.0207 24.6237 33.9665 22.9873 33.8602C22.0358 32.4711 21.1152 31.0143 20.2432 29.508C19.3735 28.0059 18.5733 26.4911 17.848 24.9848C18.5731 23.4749 19.3714 21.9584 20.2361 20.459L20.2359 20.4593C21.1029 18.9558 22.0154 17.5061 22.9581 16.1256C24.6277 15.9994 26.3398 15.9336 28.0701 15.9336C29.8081 15.9336 31.5225 15.9999 33.1916 16.1272C34.12 17.4976 35.0262 18.9426 35.8966 20.4463C36.7769 21.9668 37.5855 23.4732 38.3168 24.9507C37.5877 26.4535 36.7809 27.9751 35.9045 29.4949ZM40.8519 2.71336C42.7319 3.79749 43.4629 8.16979 42.2818 13.9032C42.2064 14.2691 42.1216 14.6417 42.0295 15.0193C39.7003 14.4819 37.1711 14.082 34.5231 13.8336C32.9805 11.6368 31.3819 9.63974 29.7774 7.91077C30.2088 7.49576 30.6396 7.10005 31.0685 6.72661C35.2132 3.11967 39.087 1.69558 40.8519 2.71336ZM28.0702 19.914C30.8388 19.914 33.0833 22.1585 33.0833 24.9272C33.0833 27.6958 30.8388 29.9403 28.0702 29.9403C25.3015 29.9403 23.057 27.6958 23.057 24.9272C23.057 22.1585 25.3015 19.914 28.0702 19.914Z" fill="#00D8FF"/>
</g>
<defs>
<clipPath id="clip0_660_391">
<rect width="56.1404" height="50" fill="white"/>
</clipPath>
</defs>
</svg>
