<svg width="50" height="50" viewBox="0 0 50 50" fill="none" xmlns="http://www.w3.org/2000/svg">
<path d="M34.6444 34.418C31.1288 41.6055 24.9726 46.4414 16.828 48.0312C15.5792 48.3372 14.2973 48.4868 13.0116 48.4766C8.32412 48.4766 4.02725 46.5234 1.94131 43.3242C-0.859472 39.0625 -1.8126 30.0273 7.42178 23.3437C7.60928 24.3633 7.99209 25.7617 8.246 26.5898C6.43323 27.9366 4.94942 29.6768 3.90615 31.6797C2.1874 35.0547 2.37881 38.4258 4.41397 41.543C5.82022 43.6445 8.04678 44.9219 10.9101 45.3125C14.4864 45.7652 18.1145 45.0819 21.2812 43.3594C26.246 40.75 29.5546 37.6328 31.7187 33.3711C31.1067 32.7387 30.7445 31.9061 30.6991 31.0273C30.6664 30.0843 31.0092 29.1668 31.6522 28.4762C32.2952 27.7857 33.1859 27.3784 34.1288 27.3438H34.2616C35.1788 27.3392 36.0626 27.6873 36.7303 28.3162C37.3979 28.9451 37.7982 29.8066 37.8484 30.7224C37.8986 31.6382 37.5948 32.5382 36.9999 33.2363C36.4049 33.9344 35.5644 34.377 34.6522 34.4727L34.6444 34.418ZM45.8437 26.5273C50.6132 31.9336 50.7421 38.2969 48.8983 41.9883C47.1796 45.3594 42.6483 48.7344 36.5546 48.7344C33.7099 48.6763 30.9115 48.0034 28.3515 46.7617C29.246 46.125 30.5155 45.1055 31.2147 44.4688C33.1889 45.324 35.3134 45.7781 37.4647 45.8047C41.4101 45.8047 44.3983 43.9609 46.1796 40.5898C47.3241 38.3633 47.3905 35.7539 46.3085 33.082C44.9808 29.7203 42.6182 26.8679 39.5624 24.9375C35.5533 22.2349 30.827 20.7942 25.9921 20.8008H24.8476C24.5807 21.4173 24.1465 21.9468 23.5942 22.3292C23.0419 22.7117 22.3935 22.9319 21.7226 22.9648H21.6015C20.6734 22.9534 19.7863 22.5807 19.1287 21.9258C18.4711 21.2708 18.0946 20.3853 18.0794 19.4573C18.0641 18.5293 18.4112 17.6319 19.047 16.9557C19.6828 16.2795 20.5571 15.8778 21.4843 15.8359H21.6132C22.2593 15.8364 22.8928 16.015 23.4441 16.3519C23.9954 16.6889 24.4431 17.1713 24.7382 17.7461H25.7577C33.8827 17.7461 41.0155 20.8633 45.8437 26.5273ZM13.5194 35.5117C13.4525 34.8631 13.6097 34.211 13.9647 33.6641C10.4022 27.4922 8.496 19.668 11.4218 11.5234C13.5194 5.40234 18.8007 1.26562 24.5272 1.26562C30.6366 1.26562 36.9999 6.61328 37.7616 16.918C36.8085 16.6016 35.4179 16.1367 34.5819 15.9648C34.3749 12.5937 31.5272 4.19531 24.7812 4.32031C22.3632 4.38672 18.8007 5.53125 16.9687 7.88281C14.7025 10.6899 13.3842 14.143 13.203 17.7461C12.7736 22.6866 13.9328 27.6352 16.5116 31.8711C16.654 31.8191 16.8057 31.7978 16.9569 31.8086H17.0819C18.0268 31.7915 18.9397 32.1504 19.6199 32.8065C20.3001 33.4625 20.6918 34.3618 20.7089 35.3066C20.726 36.2515 20.367 37.1644 19.711 37.8446C19.055 38.5248 18.1557 38.9165 17.2108 38.9336H17.0819C16.1602 38.9303 15.2752 38.5715 14.6116 37.9318C13.9479 37.2921 13.5567 36.421 13.5194 35.5V35.5117Z" fill="#764ABC"/>
</svg>
