<svg width="50" height="50" viewBox="0 0 50 50" fill="none" xmlns="http://www.w3.org/2000/svg">
<g clip-path="url(#clip0_660_390)">
<path d="M39.8438 0H10.2539C4.59083 0 0 4.59083 0 10.2539V39.7461C0 45.4092 4.59083 50 10.2539 50H39.8438C45.5068 50 50.0977 45.4092 50.0977 39.7461V10.2539C50.0977 4.59083 45.5068 0 39.8438 0Z" fill="white"/>
<path d="M25 46.875C37.0812 46.875 46.875 37.0812 46.875 25C46.875 12.9188 37.0812 3.125 25 3.125C12.9188 3.125 3.125 12.9188 3.125 25C3.125 37.0812 12.9188 46.875 25 46.875Z" fill="url(#paint0_linear_660_390)"/>
<path d="M39.9414 9.96094L23.1445 23.1445L27.0508 27.0508L39.9414 9.96094Z" fill="#FF0000"/>
<path d="M9.96094 39.9414L23.1445 23.1445L27.0508 27.0508L9.96094 39.9414Z" fill="white"/>
<path d="M25 5.27344V8.49609V5.27344ZM25 41.4062V44.6289V41.4062ZM28.418 5.56641L27.8613 8.74023L28.418 5.56641ZM22.1387 41.1426L21.582 44.3359L22.1387 41.1426ZM31.7383 6.46484L30.6348 9.49219L31.7383 6.46484ZM19.375 40.4102L18.2715 43.4375L19.375 40.4102ZM21.582 5.56641L22.1387 8.74023L21.582 5.56641ZM27.8613 41.1426L28.418 44.3359L27.8613 41.1426ZM18.2617 6.46484L19.3652 9.49219L18.2617 6.46484ZM30.6152 40.4102L31.7188 43.4375L30.6152 40.4102ZM15.1562 7.91016L16.7773 10.7031L15.1562 7.91016ZM33.2324 39.1992L34.8438 41.9922L33.2324 39.1992ZM12.3535 9.86328L14.4238 12.334L12.3535 9.86328ZM35.5762 37.5488L37.6465 40.0195L35.5762 37.5488ZM9.91211 12.2852L12.3828 14.3555L9.91211 12.2852ZM37.5977 35.5273L40.0684 37.5977L37.5977 35.5273ZM7.93945 15.1172L10.7324 16.7285L7.93945 15.1172ZM39.248 33.1836L42.041 34.7949L39.248 33.1836ZM6.49414 18.2227L9.52148 19.3262L6.49414 18.2227ZM40.4395 30.5566L43.4668 31.6602L40.4395 30.5566ZM5.60547 21.5039L8.78906 22.0703L5.60547 21.5039ZM41.2109 27.8125L44.3848 28.3691L41.2109 27.8125ZM5.32227 24.9512H8.54492H5.32227ZM41.4551 24.9512H44.6777H41.4551ZM5.61523 28.3691L8.78906 27.8125L5.61523 28.3691ZM41.2109 22.0898L44.3848 21.5332L41.2109 22.0898ZM6.52344 31.6895L9.55078 30.5859L6.52344 31.6895ZM40.459 19.3359L43.4863 18.2324L40.459 19.3359ZM7.95898 34.7949L10.752 33.1836L7.95898 34.7949ZM39.2676 16.7285L42.0605 15.1172L39.2676 16.7285ZM9.92188 37.5977L12.3926 35.5273L9.92188 37.5977ZM37.5879 14.375L40.0586 12.3047L37.5879 14.375ZM12.3242 40.0391L14.3945 37.5684L12.3242 40.0391ZM35.5469 12.3535L37.6172 9.88281L35.5469 12.3535ZM15.1562 41.9922L16.7773 39.1992L15.1562 41.9922ZM33.2324 10.7031L34.8438 7.91016L33.2324 10.7031ZM23.2812 5.35156L23.4375 7.10938L23.2812 5.35156ZM26.5625 42.8125L26.7188 44.5703L26.5625 42.8125ZM19.9023 5.95703L20.3613 7.65625L19.9023 5.95703ZM29.6387 42.2656L30.0977 43.9648L29.6387 42.2656ZM16.6797 7.12891L17.4219 8.7207L16.6797 7.12891ZM32.5586 41.2012L33.3105 42.793L32.5586 41.2012ZM13.7109 8.82812L14.7168 10.2734L13.7109 8.82812ZM35.2832 39.6289L36.2891 41.0742L35.2832 39.6289ZM11.084 11.0352L12.3242 12.2754L11.084 11.0352ZM37.6758 37.627L38.916 38.8672L37.6758 37.627ZM8.88672 13.6719L10.332 14.6777L8.88672 13.6719ZM39.6875 35.2539L41.1133 36.2305L39.6875 35.2539ZM7.16797 16.6309L8.75977 17.373L7.16797 16.6309ZM41.2402 32.5098L42.832 33.2617L41.2402 32.5098ZM5.99609 19.8535L7.69531 20.3125L5.99609 19.8535ZM42.3047 29.5898L44.0039 30.0488L42.3047 29.5898ZM5.40039 23.2422L7.1582 23.3984L5.40039 23.2422ZM42.8613 26.5234L44.6191 26.6797L42.8613 26.5234ZM5.41992 26.6797L7.17773 26.5234L5.41992 26.6797ZM42.8809 23.3984L44.6387 23.2422L42.8809 23.3984ZM5.99609 30.0488L7.69531 29.5898L5.99609 30.0488ZM42.3047 20.3125L44.0039 19.8535L42.3047 20.3125ZM7.16797 33.2715L8.75977 32.5293L7.16797 33.2715ZM41.2402 17.3926L42.832 16.6504L41.2402 17.3926ZM8.88672 36.2305L10.332 35.2246L8.88672 36.2305ZM39.6875 14.6484L41.1133 13.6719L39.6875 14.6484ZM13.7109 41.0742L14.7168 39.6289L13.7109 41.0742ZM35.2734 10.2734L36.2891 8.82812L35.2734 10.2734ZM16.6797 42.7734L17.4316 41.1816L16.6797 42.7734ZM32.5684 8.69141L33.3203 7.09961L32.5684 8.69141ZM19.9023 43.9453L20.3613 42.2461L19.9023 43.9453ZM29.6387 7.63672L30.0977 5.9375L29.6387 7.63672ZM23.2812 44.5312L23.4375 42.7734L23.2812 44.5312ZM26.5625 7.07031L26.7188 5.3125L26.5625 7.07031Z" fill="black"/>
<path d="M25 5.27344V8.49609M25 41.4062V44.6289M28.418 5.56641L27.8613 8.74023M22.1387 41.1426L21.582 44.3359M31.7383 6.46484L30.6348 9.49219M19.375 40.4102L18.2715 43.4375M21.582 5.56641L22.1387 8.74023M27.8613 41.1426L28.418 44.3359M18.2617 6.46484L19.3652 9.49219M30.6152 40.4102L31.7188 43.4375M15.1562 7.91016L16.7773 10.7031M33.2324 39.1992L34.8438 41.9922M12.3535 9.86328L14.4238 12.334M35.5762 37.5488L37.6465 40.0195M9.91211 12.2852L12.3828 14.3555M37.5977 35.5273L40.0684 37.5977M7.93945 15.1172L10.7324 16.7285M39.248 33.1836L42.041 34.7949M6.49414 18.2227L9.52148 19.3262M40.4395 30.5566L43.4668 31.6602M5.60547 21.5039L8.78906 22.0703M41.2109 27.8125L44.3848 28.3691M5.32227 24.9512H8.54492M41.4551 24.9512H44.6777M5.61523 28.3691L8.78906 27.8125M41.2109 22.0898L44.3848 21.5332M6.52344 31.6895L9.55078 30.5859M40.459 19.3359L43.4863 18.2324M7.95898 34.7949L10.752 33.1836M39.2676 16.7285L42.0605 15.1172M9.92188 37.5977L12.3926 35.5273M37.5879 14.375L40.0586 12.3047M12.3242 40.0391L14.3945 37.5684M35.5469 12.3535L37.6172 9.88281M15.1562 41.9922L16.7773 39.1992M33.2324 10.7031L34.8438 7.91016M23.2812 5.35156L23.4375 7.10938M26.5625 42.8125L26.7188 44.5703M19.9023 5.95703L20.3613 7.65625M29.6387 42.2656L30.0977 43.9648M16.6797 7.12891L17.4219 8.7207M32.5586 41.2012L33.3105 42.793M13.7109 8.82812L14.7168 10.2734M35.2832 39.6289L36.2891 41.0742M11.084 11.0352L12.3242 12.2754M37.6758 37.627L38.916 38.8672M8.88672 13.6719L10.332 14.6777M39.6875 35.2539L41.1133 36.2305M7.16797 16.6309L8.75977 17.373M41.2402 32.5098L42.832 33.2617M5.99609 19.8535L7.69531 20.3125M42.3047 29.5898L44.0039 30.0488M5.40039 23.2422L7.1582 23.3984M42.8613 26.5234L44.6191 26.6797M5.41992 26.6797L7.17773 26.5234M42.8809 23.3984L44.6387 23.2422M5.99609 30.0488L7.69531 29.5898M42.3047 20.3125L44.0039 19.8535M7.16797 33.2715L8.75977 32.5293M41.2402 17.3926L42.832 16.6504M8.88672 36.2305L10.332 35.2246M39.6875 14.6484L41.1133 13.6719M13.7109 41.0742L14.7168 39.6289M35.2734 10.2734L36.2891 8.82812M16.6797 42.7734L17.4316 41.1816M32.5684 8.69141L33.3203 7.09961M19.9023 43.9453L20.3613 42.2461M29.6387 7.63672L30.0977 5.9375M23.2812 44.5312L23.4375 42.7734M26.5625 7.07031L26.7188 5.3125" stroke="white" stroke-width="30"/>
</g>
<defs>
<linearGradient id="paint0_linear_660_390" x1="3.125" y1="3.125" x2="3.125" y2="224003" gradientUnits="userSpaceOnUse">
<stop stop-color="#19D7FF"/>
<stop offset="1" stop-color="#1E64F0"/>
</linearGradient>
<clipPath id="clip0_660_390">
<rect width="50" height="50" fill="white"/>
</clipPath>
</defs>
</svg>
