<svg width="50" height="51" viewBox="0 0 50 51" fill="none" xmlns="http://www.w3.org/2000/svg">
<g clip-path="url(#clip0_667_9)">
<path d="M25.0015 10.501C18.3347 10.501 14.1694 13.833 12.5015 20.4998C15.0007 17.1674 17.9183 15.9178 21.2507 16.751C23.1534 17.2252 24.5132 18.6049 26.019 20.1338C28.4698 22.6209 31.3065 25.5002 37.5015 25.5002C44.1679 25.5002 48.3335 22.1678 50.0015 15.4994C47.5019 18.8338 44.5847 20.0834 41.2519 19.2502C39.3495 18.7756 37.9913 17.3963 36.4835 15.8674C34.0343 13.3803 31.1983 10.501 25.0015 10.501ZM12.5015 25.5002C5.83506 25.5002 1.66943 28.8326 0.00146484 35.501C2.50068 32.1666 5.41787 30.917 8.75068 31.7502C10.6534 32.2248 12.0132 33.6041 13.519 35.133C15.9698 37.6201 18.8065 40.4994 25.0015 40.4994C31.6679 40.4994 35.8335 37.1674 37.5015 30.5006C35.0019 33.833 32.0847 35.0826 28.7519 34.2494C26.8495 33.7752 25.4913 32.3955 23.9835 30.8666C21.5343 28.3795 18.6983 25.5002 12.5015 25.5002Z" fill="#38BDF8"/>
</g>
<defs>
<clipPath id="clip0_667_9">
<rect width="50" height="50" fill="white" transform="translate(0 0.5)"/>
</clipPath>
</defs>
</svg>
