<svg width="50" height="50" viewBox="0 0 50 50" fill="none" xmlns="http://www.w3.org/2000/svg">
<g clip-path="url(#clip0_660_395)">
<path d="M0 25V50H25H50V25V0H25H0V25Z" fill="#007ACC"/>
<path d="M11.057 25.1659L11.0411 27.2135H14.2951H17.549V36.4595V45.7056H19.8506H22.1522V36.4595V27.2135H25.4062H28.6602V25.2056C28.6602 24.0945 28.6363 23.1659 28.6046 23.1421C28.5808 23.1103 24.6205 23.0945 19.8189 23.1024L11.0808 23.1262L11.057 25.1659Z" fill="white"/>
<path d="M40.3451 23.0679C41.6149 23.3853 42.5832 23.9488 43.4721 24.8695C43.9324 25.3615 44.6149 26.2583 44.6705 26.4726C44.6864 26.5361 42.5118 27.9964 41.1943 28.8139C41.1467 28.8456 40.9562 28.6393 40.7419 28.3218C40.0991 27.3853 39.4245 26.9806 38.3927 26.9091C36.8768 26.806 35.9007 27.5996 35.9086 28.925C35.9086 29.3139 35.9641 29.5441 36.1229 29.8615C36.4562 30.552 37.0753 30.9647 39.0197 31.806C42.5991 33.3456 44.1308 34.3615 45.0832 35.806C46.1467 37.4171 46.3848 39.9885 45.6626 41.9012C44.8689 43.9806 42.9006 45.3933 40.1308 45.8615C39.2737 46.0123 37.2419 45.9885 36.3213 45.8218C34.3133 45.4647 32.4086 44.4726 31.234 43.171C30.7737 42.6631 29.8768 41.3377 29.9324 41.2425C29.9562 41.2107 30.1626 41.0837 30.3927 40.9488C30.6149 40.8218 31.4562 40.3377 32.2499 39.8774L33.6864 39.0441L33.988 39.4885C34.4086 40.1314 35.3292 41.0123 35.8848 41.306C37.48 42.1472 39.6705 42.0282 40.7499 41.0599C41.2102 40.6393 41.4006 40.2028 41.4006 39.5599C41.4006 38.9806 41.3292 38.7266 41.0276 38.2901C40.6387 37.7345 39.8451 37.2663 37.5911 36.2901C35.0118 35.179 33.9007 34.4885 32.8848 33.3933C32.2975 32.7583 31.7419 31.7425 31.5118 30.8933C31.3213 30.1869 31.2737 28.4171 31.4245 27.7028C31.9562 25.2107 33.8372 23.4726 36.5514 22.9568C37.4324 22.7901 39.48 22.8536 40.3451 23.0679Z" fill="white"/>
</g>
<defs>
<clipPath id="clip0_660_395">
<rect width="50" height="50" rx="5" fill="white"/>
</clipPath>
</defs>
</svg>
