<svg width="50" height="51" viewBox="0 0 50 51" fill="none" xmlns="http://www.w3.org/2000/svg">
<path d="M48.7367 8.12504L26.2984 48.2493C25.8347 49.0778 24.6445 49.0825 24.1746 48.2586L1.29098 8.12973C0.778091 7.23051 1.54567 6.14262 2.56481 6.32426L25.0273 10.3387C25.1707 10.3649 25.3176 10.3649 25.4609 10.3387L47.4531 6.33051C48.4679 6.14574 49.2402 7.22465 48.7367 8.12504Z" fill="url(#paint0_linear_660_396)"/>
<path d="M35.7265 1.05863L19.1226 4.31175C18.9901 4.33765 18.8699 4.40683 18.781 4.50843C18.692 4.61003 18.6393 4.73829 18.6312 4.87308L17.6089 22.1262C17.6034 22.2208 17.6201 22.3154 17.6574 22.4025C17.6948 22.4896 17.752 22.5668 17.8244 22.6279C17.8968 22.6891 17.9824 22.7326 18.0745 22.7549C18.1666 22.7773 18.2627 22.7779 18.355 22.7567L22.9785 21.6883C23.078 21.6654 23.1818 21.6679 23.2801 21.6956C23.3785 21.7232 23.4683 21.7751 23.5414 21.8464C23.6145 21.9178 23.6685 22.0064 23.6985 22.1041C23.7284 22.2018 23.7334 22.3054 23.7128 22.4055L22.339 29.1317C22.318 29.2352 22.3243 29.3424 22.3571 29.4428C22.39 29.5432 22.4484 29.6333 22.5265 29.7044C22.6047 29.7755 22.6999 29.825 22.803 29.8482C22.906 29.8714 23.0133 29.8675 23.1144 29.8368L25.9691 28.9684C26.4117 28.834 26.8375 29.2231 26.7445 29.6762L24.5609 40.2414C24.425 40.9024 25.3039 41.2625 25.6703 40.6961L25.9144 40.318L39.4457 13.3141C39.673 12.861 39.2812 12.3453 38.7855 12.4414L34.0257 13.3602C33.9233 13.3801 33.8175 13.3733 33.7184 13.3405C33.6194 13.3078 33.5304 13.2501 33.4601 13.173C33.3898 13.0959 33.3404 13.002 33.3168 12.9004C33.2932 12.7988 33.2962 12.6928 33.3253 12.5926L36.4308 1.82621C36.46 1.72568 36.4628 1.61932 36.439 1.51739C36.4151 1.41546 36.3654 1.3214 36.2946 1.24426C36.2238 1.16713 36.1344 1.10953 36.0349 1.07701C35.9354 1.0445 35.8292 1.03817 35.7265 1.05863Z" fill="url(#paint1_linear_660_396)"/>
<defs>
<linearGradient id="paint0_linear_660_396" x1="0.731684" y1="4.89051" x2="28.6589" y2="42.8179" gradientUnits="userSpaceOnUse">
<stop stop-color="#41D1FF"/>
<stop offset="1" stop-color="#BD34FE"/>
</linearGradient>
<linearGradient id="paint1_linear_660_396" x1="23.7383" y1="1.94143" x2="28.7902" y2="36.597" gradientUnits="userSpaceOnUse">
<stop stop-color="#FFEA83"/>
<stop offset="0.083" stop-color="#FFDD35"/>
<stop offset="1" stop-color="#FFA800"/>
</linearGradient>
</defs>
</svg>
