<svg width="50" height="50" viewBox="0 0 50 50" fill="none" xmlns="http://www.w3.org/2000/svg">
<g clip-path="url(#clip0_660_383)">
<mask id="mask0_660_383" style="mask-type:alpha" maskUnits="userSpaceOnUse" x="-1" y="0" width="51" height="50">
<path fill-rule="evenodd" clip-rule="evenodd" d="M35.4558 49.6588C35.8536 49.814 36.2792 49.8856 36.7059 49.8692C37.1326 49.8528 37.5514 49.7487 37.9362 49.5635L48.2304 44.61C48.7605 44.3548 49.2078 43.9551 49.5209 43.457C49.8339 42.9588 49.9999 42.3824 49.9999 41.794V8.20688C50 7.61845 49.834 7.04194 49.521 6.54369C49.2079 6.04544 48.7606 5.6457 48.2304 5.39047L37.9362 0.437739C37.3545 0.157858 36.7002 0.0657083 36.0639 0.174042C35.4275 0.282377 34.8406 0.585838 34.3843 1.04243L14.6772 19.0213L6.09365 12.5053C5.70644 12.2113 5.22853 12.0622 4.74283 12.0837C4.25714 12.1053 3.79431 12.2962 3.43466 12.6233L0.681537 15.1276C0.466985 15.3227 0.295526 15.5605 0.178128 15.8257C0.0607297 16.0909 -2.29342e-05 16.3777 -0.000243538 16.6677C-0.000464141 16.9577 0.0598521 17.2446 0.176847 17.51C0.293841 17.7753 0.464938 18.0134 0.679193 18.2088L8.12333 25.0002L0.679583 31.792C0.465446 31.9875 0.294451 32.2256 0.177529 32.4909C0.0606073 32.7562 0.000330182 33.043 0.000550762 33.333C0.000771343 33.6229 0.0614847 33.9097 0.17881 34.1748C0.296136 34.44 0.467492 34.6777 0.681927 34.8729L3.43505 37.3772C3.79462 37.7045 4.25743 37.8955 4.74315 37.9171C5.22886 37.9387 5.70681 37.7896 6.09404 37.4956L14.6776 30.9799L34.3847 48.9584C34.6894 49.2637 35.0539 49.5022 35.4558 49.6588ZM37.5073 13.6498L22.5546 25.0002L37.5077 36.351L37.5073 13.6498Z" fill="white"/>
</mask>
<g mask="url(#mask0_660_383)">
<path d="M48.2307 5.39894L37.9284 0.438002C37.3465 0.157936 36.6919 0.065686 36.0553 0.174021C35.4186 0.282356 34.8314 0.585918 34.3749 1.04269L0.649084 31.7923C0.434786 31.9877 0.263647 32.2257 0.146621 32.491C0.0295959 32.7564 -0.0307376 33.0432 -0.030517 33.3332C-0.0302964 33.6233 0.0304735 33.91 0.147903 34.1752C0.265332 34.4404 0.436833 34.6781 0.651428 34.8732L3.40612 37.3775C3.76601 37.7047 4.22906 37.8957 4.71501 37.9173C5.20095 37.9389 5.67914 37.7898 6.06666 37.4958L46.6803 6.68527C48.0428 5.65167 49.9999 6.62355 49.9999 8.3337V8.21417C49.9998 7.62593 49.8338 7.04963 49.5208 6.55155C49.2079 6.05347 48.7607 5.65421 48.2307 5.39894Z" fill="#0065A9"/>
<g filter="url(#filter0_d_660_383)">
<path d="M48.2307 44.6024L37.9284 49.5625C37.3466 49.8427 36.692 49.935 36.0554 49.8269C35.4187 49.7187 34.8315 49.4152 34.3749 48.9586L0.649084 18.2086C0.434786 18.0132 0.263647 17.7752 0.146621 17.5099C0.0295959 17.2445 -0.0307376 16.9577 -0.030517 16.6677C-0.0302964 16.3776 0.0304735 16.0909 0.147903 15.8257C0.265332 15.5605 0.436833 15.3228 0.651428 15.1277L3.40612 12.6234C3.76601 12.2962 4.22906 12.1052 4.71501 12.0836C5.20095 12.062 5.67914 12.2111 6.06666 12.5051L46.6803 43.3152C48.0428 44.3492 49.9999 43.3773 49.9999 41.6672V41.7867C49.9998 42.375 49.8338 42.9513 49.5208 43.4493C49.2079 43.9474 48.7607 44.3471 48.2307 44.6024Z" fill="#007ACC"/>
</g>
<g filter="url(#filter1_d_660_383)">
<path d="M37.9289 49.5638C37.3469 49.8436 36.6922 49.9357 36.0556 49.8273C35.4189 49.7189 34.8316 49.4154 34.375 48.9587C35.5281 50.1118 37.5 49.295 37.5 47.6641V2.33641C37.5 0.705547 35.5281 -0.11125 34.375 1.04227C34.8316 0.585548 35.4189 0.282 36.0556 0.173601C36.6922 0.0652031 37.3469 0.157311 37.9289 0.437187L48.2293 5.39109C48.7597 5.64616 49.2073 6.04583 49.5206 6.54409C49.8338 7.04235 50 7.61895 50 8.2075V41.7942C50 42.3828 49.8338 42.9594 49.5206 43.4576C49.2073 43.9559 48.7597 44.3556 48.2293 44.6106L37.9289 49.5638Z" fill="#1F9CF0"/>
</g>
<path style="mix-blend-mode:overlay" opacity="0.25" fill-rule="evenodd" clip-rule="evenodd" d="M35.4257 49.6588C35.8235 49.8139 36.249 49.8855 36.6756 49.8691C37.1023 49.8527 37.521 49.7487 37.9058 49.5635L48.1999 44.61C48.7301 44.3548 49.1775 43.955 49.4905 43.4568C49.8036 42.9585 49.9696 42.382 49.9694 41.7936V8.20688C49.9696 7.61845 49.8036 7.04194 49.4905 6.54369C49.1775 6.04544 48.7301 5.6457 48.1999 5.39047L37.9058 0.437739C37.3241 0.157858 36.6698 0.0657083 36.0334 0.174042C35.3971 0.282377 34.8101 0.585838 34.3538 1.04243L14.6468 19.0213L6.06318 12.5057C5.67598 12.2117 5.19806 12.0625 4.71237 12.0841C4.22667 12.1056 3.76385 12.2965 3.4042 12.6237L0.651074 15.128C0.436576 15.3231 0.265165 15.5609 0.147801 15.8261C0.0304374 16.0913 -0.0302964 16.3781 -0.030517 16.6681C-0.0307376 16.9581 0.0295599 17.2449 0.14652 17.5103C0.26348 17.7757 0.434529 18.0137 0.64873 18.2092L8.09287 25.0002L0.649121 31.7916C0.434866 31.9871 0.263769 32.2251 0.146775 32.4905C0.0297799 32.7559 -0.0305363 33.0428 -0.0303157 33.3328C-0.0300951 33.6228 0.0306575 33.9096 0.148056 34.1748C0.265454 34.44 0.436913 34.6778 0.651464 34.8729L3.40459 37.3772C3.76419 37.7044 4.22699 37.8954 4.71269 37.917C5.19838 37.9386 5.67632 37.7895 6.06357 37.4956L14.6476 30.9795L34.3546 48.9584C34.6592 49.2637 35.0239 49.5022 35.4257 49.6588ZM37.4772 13.6495L22.5241 25.0002L37.4772 36.3506V13.6495Z" fill="url(#paint0_linear_660_383)"/>
</g>
</g>
<defs>
<filter id="filter0_d_660_383" x="-8.36386" y="3.7482" width="66.697" height="54.4562" filterUnits="userSpaceOnUse" color-interpolation-filters="sRGB">
<feFlood flood-opacity="0" result="BackgroundImageFix"/>
<feColorMatrix in="SourceAlpha" type="matrix" values="0 0 0 0 0 0 0 0 0 0 0 0 0 0 0 0 0 0 127 0" result="hardAlpha"/>
<feOffset/>
<feGaussianBlur stdDeviation="4.16667"/>
<feColorMatrix type="matrix" values="0 0 0 0 0 0 0 0 0 0 0 0 0 0 0 0 0 0 0.25 0"/>
<feBlend mode="overlay" in2="BackgroundImageFix" result="effect1_dropShadow_660_383"/>
<feBlend mode="normal" in="SourceGraphic" in2="effect1_dropShadow_660_383" result="shape"/>
</filter>
<filter id="filter1_d_660_383" x="26.0417" y="-8.20395" width="32.2917" height="66.4089" filterUnits="userSpaceOnUse" color-interpolation-filters="sRGB">
<feFlood flood-opacity="0" result="BackgroundImageFix"/>
<feColorMatrix in="SourceAlpha" type="matrix" values="0 0 0 0 0 0 0 0 0 0 0 0 0 0 0 0 0 0 127 0" result="hardAlpha"/>
<feOffset/>
<feGaussianBlur stdDeviation="4.16667"/>
<feColorMatrix type="matrix" values="0 0 0 0 0 0 0 0 0 0 0 0 0 0 0 0 0 0 0.25 0"/>
<feBlend mode="overlay" in2="BackgroundImageFix" result="effect1_dropShadow_660_383"/>
<feBlend mode="normal" in="SourceGraphic" in2="effect1_dropShadow_660_383" result="shape"/>
</filter>
<linearGradient id="paint0_linear_660_383" x1="24.9695" y1="0.129107" x2="24.9695" y2="49.8713" gradientUnits="userSpaceOnUse">
<stop stop-color="white"/>
<stop offset="1" stop-color="white" stop-opacity="0"/>
</linearGradient>
<clipPath id="clip0_660_383">
<rect width="50" height="50" fill="white"/>
</clipPath>
</defs>
</svg>
