<svg width="50" height="41" viewBox="0 0 50 41" fill="none" xmlns="http://www.w3.org/2000/svg">
<g clip-path="url(#clip0_660_400)">
<path d="M11.8782 3.24072H38.4949L46.2944 11.3835L24.2262 36.1009L3.70264 11.3835L11.8782 3.24072Z" fill="#18253F"/>
<path d="M29.5755 30.2627H19.1432L14.4314 24.4945L27.7837 24.494L27.7841 23.6758H35.4165L29.5755 30.2627Z" fill="#274D82"/>
<path d="M44.0547 9.06104L15.2692 25.6804L11.5142 20.9828L33.7991 8.11618L33.3898 7.40695L39.3255 3.97998L44.0547 9.06104Z" fill="#274D82"/>
<path d="M28.6322 3.24879L7.01777 15.7279L3.65625 11.5315L18.1279 3.17627L28.6322 3.24879Z" fill="#274D82"/>
<g filter="url(#filter0_d_660_400)">
<path d="M39.5353 0.794922H10.8654L0.390625 11.2158L24.1719 39.8533L26.0691 37.7246L49.6094 11.3136L39.5353 0.794922ZM38.4879 3.24845L46.2691 11.3735L24.2378 36.0919L3.7109 11.3735L11.8778 3.24845H38.4879Z" fill="black"/>
</g>
<path d="M39.5353 0.794922H10.8654L0.390625 11.2158L24.1719 39.8533L26.0691 37.7246L49.6094 11.3136L39.5353 0.794922ZM38.4879 3.24845L46.2691 11.3735L24.2378 36.0919L3.7109 11.3735L11.8778 3.24845H38.4879Z" fill="#3068B7"/>
</g>
<defs>
<filter id="filter0_d_660_400" x="-2.60938" y="-2.20508" width="57.2188" height="47.0581" filterUnits="userSpaceOnUse" color-interpolation-filters="sRGB">
<feFlood flood-opacity="0" result="BackgroundImageFix"/>
<feColorMatrix in="SourceAlpha" type="matrix" values="0 0 0 0 0 0 0 0 0 0 0 0 0 0 0 0 0 0 127 0" result="hardAlpha"/>
<feOffset dx="1" dy="1"/>
<feGaussianBlur stdDeviation="2"/>
<feColorMatrix type="matrix" values="0 0 0 0 0 0 0 0 0 0 0 0 0 0 0 0 0 0 0.36 0"/>
<feBlend mode="normal" in2="BackgroundImageFix" result="effect1_dropShadow_660_400"/>
<feBlend mode="normal" in="SourceGraphic" in2="effect1_dropShadow_660_400" result="shape"/>
</filter>
<clipPath id="clip0_660_400">
<rect width="50" height="39.6484" fill="white" transform="translate(0 0.5)"/>
</clipPath>
</defs>
</svg>
